<mxfile host="app.diagrams.net" modified="2021-04-22T20:40:29.749Z" agent="5.0 (Windows NT 10.0; Win64; x64) AppleWebKit/537.36 (KHTML, like Gecko) Chrome/89.0.4389.114 Safari/537.36 OPR/75.0.3969.171" etag="CZ88EZ5MRHt7Cba8qWT1" version="14.6.3" type="github">
  <diagram id="L-ArcHJkX-2zXAjQUg1g" name="Page-1">
    <mxGraphModel dx="1221" dy="692" grid="1" gridSize="10" guides="1" tooltips="1" connect="1" arrows="1" fold="1" page="1" pageScale="1" pageWidth="827" pageHeight="1169" math="0" shadow="0">
      <root>
        <mxCell id="0" />
        <mxCell id="1" parent="0" />
        <mxCell id="vf80NwjBvejmA2ly74_q-4" value="" style="rounded=0;whiteSpace=wrap;html=1;fillColor=#dae8fc;strokeColor=#6c8ebf;rotation=90;" parent="1" vertex="1">
          <mxGeometry x="175" y="160" width="50" height="100" as="geometry" />
        </mxCell>
        <mxCell id="vf80NwjBvejmA2ly74_q-8" value="" style="endArrow=classic;html=1;" parent="1" edge="1">
          <mxGeometry width="50" height="50" relative="1" as="geometry">
            <mxPoint x="170" y="210" as="sourcePoint" />
            <mxPoint x="230" y="210" as="targetPoint" />
            <Array as="points">
              <mxPoint x="185" y="210" />
            </Array>
          </mxGeometry>
        </mxCell>
        <mxCell id="vf80NwjBvejmA2ly74_q-14" value="" style="rounded=0;whiteSpace=wrap;html=1;fillColor=#d5e8d4;strokeColor=#82b366;rotation=-90;" parent="1" vertex="1">
          <mxGeometry x="275" y="80" width="50" height="100" as="geometry" />
        </mxCell>
        <mxCell id="vf80NwjBvejmA2ly74_q-16" value="Platoon 1" style="text;html=1;strokeColor=#d79b00;fillColor=#ffe6cc;align=center;verticalAlign=middle;whiteSpace=wrap;rounded=0;" parent="1" vertex="1">
          <mxGeometry x="610" y="280" width="80" height="20" as="geometry" />
        </mxCell>
        <mxCell id="vf80NwjBvejmA2ly74_q-17" value="Platoon 2" style="text;html=1;strokeColor=#6c8ebf;fillColor=#dae8fc;align=center;verticalAlign=middle;whiteSpace=wrap;rounded=0;" parent="1" vertex="1">
          <mxGeometry x="610" y="200" width="80" height="20" as="geometry" />
        </mxCell>
        <mxCell id="vf80NwjBvejmA2ly74_q-18" value="VeÃ­culo Livre" style="text;html=1;strokeColor=#82b366;fillColor=#d5e8d4;align=center;verticalAlign=middle;whiteSpace=wrap;rounded=0;" parent="1" vertex="1">
          <mxGeometry x="610" y="120" width="80" height="20" as="geometry" />
        </mxCell>
        <mxCell id="vf80NwjBvejmA2ly74_q-19" value="" style="endArrow=none;dashed=1;html=1;dashPattern=1 3;strokeWidth=2;" parent="1" edge="1">
          <mxGeometry width="50" height="50" relative="1" as="geometry">
            <mxPoint x="120" y="170" as="sourcePoint" />
            <mxPoint x="600" y="170" as="targetPoint" />
          </mxGeometry>
        </mxCell>
        <mxCell id="vf80NwjBvejmA2ly74_q-20" value="" style="endArrow=none;dashed=1;html=1;dashPattern=1 3;strokeWidth=2;" parent="1" edge="1">
          <mxGeometry width="50" height="50" relative="1" as="geometry">
            <mxPoint x="120" y="249.5" as="sourcePoint" />
            <mxPoint x="600" y="250" as="targetPoint" />
          </mxGeometry>
        </mxCell>
        <mxCell id="vf80NwjBvejmA2ly74_q-21" value="" style="endArrow=none;html=1;" parent="1" edge="1">
          <mxGeometry width="50" height="50" relative="1" as="geometry">
            <mxPoint x="120" y="90" as="sourcePoint" />
            <mxPoint x="600" y="90" as="targetPoint" />
          </mxGeometry>
        </mxCell>
        <mxCell id="vf80NwjBvejmA2ly74_q-22" value="" style="endArrow=none;html=1;" parent="1" edge="1">
          <mxGeometry width="50" height="50" relative="1" as="geometry">
            <mxPoint x="120" y="329.65999999999997" as="sourcePoint" />
            <mxPoint x="600" y="330" as="targetPoint" />
          </mxGeometry>
        </mxCell>
        <mxCell id="8cDL8odicBc8uiaB8Qvz-1" value="" style="endArrow=classic;html=1;" edge="1" parent="1">
          <mxGeometry width="50" height="50" relative="1" as="geometry">
            <mxPoint x="265" y="129.86" as="sourcePoint" />
            <mxPoint x="325" y="129.86" as="targetPoint" />
            <Array as="points">
              <mxPoint x="280" y="129.86" />
            </Array>
          </mxGeometry>
        </mxCell>
        <mxCell id="8cDL8odicBc8uiaB8Qvz-2" value="" style="rounded=0;whiteSpace=wrap;html=1;fillColor=#dae8fc;strokeColor=#6c8ebf;rotation=90;" vertex="1" parent="1">
          <mxGeometry x="295" y="160" width="50" height="100" as="geometry" />
        </mxCell>
        <mxCell id="8cDL8odicBc8uiaB8Qvz-3" value="" style="endArrow=classic;html=1;" edge="1" parent="1">
          <mxGeometry width="50" height="50" relative="1" as="geometry">
            <mxPoint x="290.0000000000001" y="210" as="sourcePoint" />
            <mxPoint x="350.0000000000001" y="210" as="targetPoint" />
            <Array as="points">
              <mxPoint x="305" y="210" />
            </Array>
          </mxGeometry>
        </mxCell>
        <mxCell id="8cDL8odicBc8uiaB8Qvz-4" value="" style="rounded=0;whiteSpace=wrap;html=1;fillColor=#dae8fc;strokeColor=#6c8ebf;rotation=90;" vertex="1" parent="1">
          <mxGeometry x="415" y="160" width="50" height="100" as="geometry" />
        </mxCell>
        <mxCell id="8cDL8odicBc8uiaB8Qvz-5" value="" style="endArrow=classic;html=1;" edge="1" parent="1">
          <mxGeometry width="50" height="50" relative="1" as="geometry">
            <mxPoint x="410.0000000000001" y="210" as="sourcePoint" />
            <mxPoint x="470" y="210" as="targetPoint" />
            <Array as="points">
              <mxPoint x="425" y="210" />
            </Array>
          </mxGeometry>
        </mxCell>
        <mxCell id="8cDL8odicBc8uiaB8Qvz-7" value="" style="rounded=0;whiteSpace=wrap;html=1;fillColor=#ffe6cc;strokeColor=#d79b00;rotation=90;" vertex="1" parent="1">
          <mxGeometry x="275" y="240" width="50" height="100" as="geometry" />
        </mxCell>
        <mxCell id="8cDL8odicBc8uiaB8Qvz-8" value="" style="endArrow=classic;html=1;" edge="1" parent="1">
          <mxGeometry width="50" height="50" relative="1" as="geometry">
            <mxPoint x="275.0000000000001" y="289.5" as="sourcePoint" />
            <mxPoint x="325.0000000000001" y="290" as="targetPoint" />
          </mxGeometry>
        </mxCell>
        <mxCell id="8cDL8odicBc8uiaB8Qvz-9" value="" style="rounded=0;whiteSpace=wrap;html=1;fillColor=#ffe6cc;strokeColor=#d79b00;rotation=90;" vertex="1" parent="1">
          <mxGeometry x="389" y="240" width="50" height="100" as="geometry" />
        </mxCell>
        <mxCell id="8cDL8odicBc8uiaB8Qvz-10" value="" style="endArrow=classic;html=1;" edge="1" parent="1">
          <mxGeometry width="50" height="50" relative="1" as="geometry">
            <mxPoint x="389.0000000000001" y="289.5" as="sourcePoint" />
            <mxPoint x="439" y="290" as="targetPoint" />
          </mxGeometry>
        </mxCell>
        <mxCell id="8cDL8odicBc8uiaB8Qvz-12" value="" style="rounded=0;whiteSpace=wrap;html=1;fillColor=#ffe6cc;strokeColor=#d79b00;rotation=90;" vertex="1" parent="1">
          <mxGeometry x="500" y="240" width="50" height="100" as="geometry" />
        </mxCell>
        <mxCell id="8cDL8odicBc8uiaB8Qvz-13" value="" style="endArrow=classic;html=1;" edge="1" parent="1">
          <mxGeometry width="50" height="50" relative="1" as="geometry">
            <mxPoint x="500" y="289.5" as="sourcePoint" />
            <mxPoint x="550" y="290" as="targetPoint" />
          </mxGeometry>
        </mxCell>
      </root>
    </mxGraphModel>
  </diagram>
</mxfile>
